<svg xmlns="http://www.w3.org/2000/svg" xmlns:xlink="http://www.w3.org/1999/xlink" width="16" height="16" viewBox="0 0 16 16"><defs><linearGradient id="linear-gradient" y1="8.21" x2="16.43" y2="8.21" gradientUnits="userSpaceOnUse"><stop offset="0" stop-color="#d00000"/><stop offset="0.25" stop-color="#fbbc3b"/><stop offset="0.5" stop-color="#58b85c"/><stop offset="0.75" stop-color="#0071bc"/><stop offset="1" stop-color="#ed1e79"/></linearGradient></defs><title>Asset 2color</title><g id="Layer_2" data-name="Layer 2"><g id="favicon"><g id="all_letters" data-name="all letters"><rect id="bg" width="16.43" height="16.43" style="fill:url(#linear-gradient)"/><path id="h" d="M15.36,10.62v-3a4.3,4.3,0,0,0,0-.62,1.9,1.9,0,0,0-.6-1.2,2,2,0,0,0-2.7.29,1.37,1.37,0,0,1-.15.18v-3l-.2.06-1.25.44a.24.24,0,0,0-.19.26c0,2.21,0,4.41,0,6.62,0,.07,0,.14,0,.21h1.6V8.3a4.89,4.89,0,0,1,0-.54A1,1,0,0,1,13,6.85a.83.83,0,0,1,.68.9c0,1,0,1.94,0,2.91v.22h1.62Z" style="fill:#fff"/><path id="n" d="M8.82,13a2,2,0,0,1,0-.25c0-1.69,0-3.39,0-5.09a4.14,4.14,0,0,0,0-.79,1.68,1.68,0,0,0-1-1.5,1.88,1.88,0,0,0-2.35.67,1.34,1.34,0,0,1-.11.14l0,0V5.65l-1.39.5a.22.22,0,0,0-.09.16v5.76a.24.24,0,0,0,.09.16l1.47.61v-5A1.28,1.28,0,0,1,5.59,7a.93.93,0,0,1,1-.31.77.77,0,0,1,.6.71,4,4,0,0,1,0,.5v3c0,.72,0,1.43,0,2.14Z" style="fill:#fff"/><path id="i" d="M1.1,7.14c-.13,0-.16.1-.16.23v3.49a.22.22,0,0,0,.16.24l1.14.47.17,0V6.67Z" style="fill:#fff"/></g></g></g></svg>